<svg width="24" height="24" viewBox="0 0 24 24" fill="none" xmlns="http://www.w3.org/2000/svg">
<g id="Icon">
<path id="Icon_2" d="M20.0001 4H21.0001C21.0001 3.73478 20.8947 3.48043 20.7072 3.29289C20.5197 3.10536 20.2653 3 20.0001 3V4ZM19.0001 16C19.0001 16.2652 19.1054 16.5196 19.293 16.7071C19.4805 16.8946 19.7349 17 20.0001 17C20.2653 17 20.5197 16.8946 20.7072 16.7071C20.8947 16.5196 21.0001 16.2652 21.0001 16H19.0001ZM8.00008 3C7.73486 3 7.48051 3.10536 7.29297 3.29289C7.10544 3.48043 7.00008 3.73478 7.00008 4C7.00008 4.26522 7.10544 4.51957 7.29297 4.70711C7.48051 4.89464 7.73486 5 8.00008 5V3ZM3.29308 19.293C3.19757 19.3852 3.12139 19.4956 3.06898 19.6176C3.01657 19.7396 2.98898 19.8708 2.98783 20.0036C2.98668 20.1364 3.01198 20.2681 3.06226 20.391C3.11254 20.5138 3.18679 20.6255 3.28069 20.7194C3.37458 20.8133 3.48623 20.8875 3.60913 20.9378C3.73202 20.9881 3.8637 21.0134 3.99648 21.0123C4.12926 21.0111 4.26048 20.9835 4.38249 20.9311C4.50449 20.8787 4.61483 20.8025 4.70708 20.707L3.29308 19.293ZM19.0001 4V16H21.0001V4H19.0001ZM20.0001 3H8.00008V5H20.0001V3ZM19.2931 3.293L3.29308 19.293L4.70708 20.707L20.7071 4.707L19.2931 3.293Z" fill="#D1D5DB"/>
</g>
</svg>
